<svg width="204" height="140" viewBox="0 0 204 140" fill="none" xmlns="http://www.w3.org/2000/svg">
<path d="M183.371 137.705C193.499 137.705 201.708 129.485 201.708 119.344C201.708 109.204 193.499 100.984 183.371 100.984C173.244 100.984 165.034 109.204 165.034 119.344C165.034 129.485 173.244 137.705 183.371 137.705Z" fill="white"/>
<path d="M18.3374 134.262C26.5658 134.262 33.2362 127.583 33.2362 119.344C33.2362 111.105 26.5658 104.426 18.3374 104.426C10.1089 104.426 3.43848 111.105 3.43848 119.344C3.43848 127.583 10.1089 134.262 18.3374 134.262Z" stroke="white" stroke-width="3" stroke-dasharray="2 2"/>
<path d="M60.4551 0C67.1405 0 73.6348 1.14754 79.9382 3.44262C86.4325 5.73771 92.6405 9.08469 98.5618 13.4836C99.5169 14.4399 100.567 15.3962 101.713 16.3525C102.669 15.3962 103.719 14.4399 104.865 13.4836C110.786 9.08469 116.899 5.73771 123.202 3.44262C129.697 1.14754 136.191 0 142.685 0C149.371 0 155.865 1.14754 162.169 3.44262C168.663 5.73771 174.775 9.18033 180.506 13.7705C186.427 18.1694 191.584 24.0984 195.978 31.5574C200.562 39.0164 202.854 47.9098 202.854 58.2377V80.3279C201.708 86.6834 195.404 90.126 183.944 90.6557C178.596 90.6557 173.916 89.7024 169.904 87.7956C166.084 85.7831 164.174 83.2938 164.174 80.3279V60.5328C164.174 55.9426 163.315 52.1174 161.596 49.0574C159.876 45.8059 157.966 43.3197 155.865 41.5984C153.764 39.6859 151.567 38.3469 149.275 37.582C146.983 36.6256 144.691 36.1475 142.399 36.1475C140.107 36.1475 137.815 36.6256 135.522 37.582C133.421 38.3469 131.32 39.6859 129.219 41.5984C127.118 43.3197 125.208 45.8059 123.489 49.0574C121.77 52.1174 120.815 55.9426 120.624 60.5328L124.921 115.902C123.775 127.377 113.174 137.035 101.713 137.992C96.3652 137.992 91.6854 136.27 87.6742 132.828C83.8539 129.194 77.9326 122.404 77.9326 117.049L81.9438 60.5328C81.9438 55.9426 81.0843 52.1174 79.3652 49.0574C77.6461 45.8059 75.736 43.3197 73.6348 41.5984C71.5336 39.6859 69.3371 38.3469 67.0449 37.582C64.7528 36.6256 62.4607 36.1475 60.1685 36.1475C57.8764 36.1475 55.5843 36.6256 53.2921 37.582C51.1909 38.3469 49.09 39.6859 46.9888 41.5984C44.8876 43.3197 42.9775 45.8059 41.2584 49.0574C39.5393 52.1174 38.5842 55.9426 38.3933 60.5328V72.2951C37.4381 83.7705 31.2303 89.9863 19.7697 90.9426C14.4214 90.9426 9.74157 89.2213 5.73034 85.7787C1.91011 82.1449 0 77.6502 0 72.2951V58.2377C0.382023 47.9098 2.76966 39.0164 7.16292 31.5574C11.5562 24.0984 16.7135 18.1694 22.6348 13.7705C28.5561 9.18033 34.6685 5.73771 40.9719 3.44262C47.4662 1.14754 53.9607 0 60.4551 0Z" fill="white"/>
</svg>
